PathFileType	4	(X/Y/Z)	 3.0Hz3min.trc
DataRate	CameraRate	NumFrames	NumMarkers	Units	OrigDataRate	OrigDataStartFrame	OrigNumFrames
200	200	8	43	m	200	624	998
Frame#	Time	C7			LSH			RSH			MAN			RASI			LASI			HIPR			HIPL			RPSI			LPSI			COX			RTHI1			RTHI2			RTHI3			RTHI4			RLKN			RMKN			RSHA1			RSHA2			RSHA3			RSHA4			RLMAL			RMMAL			RHEEL			RMET5			RMET1			RTOE			LTHI1			LTHI2			LTHI3			LTHI4			LLKN			LMKN			LSHA1			LSHA2			LSHA3			LSHA4			LLMAL			LMMAL			LHEEL			LMET5			LMET1			LTOE			
		X1	Y1	Z1	X2	Y2	Z2	X3	Y3	Z3	X4	Y4	Z4	X5	Y5	Z5	X6	Y6	Z6	X7	Y7	Z7	X8	Y8	Z8	X9	Y9	Z9	X10	Y10	Z10	X11	Y11	Z11	X12	Y12	Z12	X13	Y13	Z13	X14	Y14	Z14	X15	Y15	Z15	X16	Y16	Z16	X17	Y17	Z17	X18	Y18	Z18	X19	Y19	Z19	X20	Y20	Z20	X21	Y21	Z21	X22	Y22	Z22	X23	Y23	Z23	X24	Y24	Z24	X25	Y25	Z25	X26	Y26	Z26	X27	Y27	Z27	X28	Y28	Z28	X29	Y29	Z29	X30	Y30	Z30	X31	Y31	Z31	X32	Y32	Z32	X33	Y33	Z33	X34	Y34	Z34	X35	Y35	Z35	X36	Y36	Z36	X37	Y37	Z37	X38	Y38	Z38	X39	Y39	Z39	X40	Y40	Z40	X41	Y41	Z41	X42	Y42	Z42	X43	Y43	Z43	
624	3.1200	-0.240972	1.422828	-0.572314	-0.164474	1.409107	-0.717161	-0.176757	1.398530	-0.417059	-0.122758	1.359088	-0.566394	-0.110565	0.932056	-0.458592	-0.118011	0.933424	-0.684881	-0.170002	1.007018	-0.427495	-0.185010	0.986956	-0.716837	-0.273352	0.984274	-0.514084	-0.279615	0.977591	-0.598330	-0.280156	0.981042	-0.560803	-0.235217	0.759792	-0.390854	-0.219989	0.703146	-0.380890	-0.158266	0.716838	-0.368206	-0.165345	0.777783	-0.376966	-0.203952	0.520568	-0.378350	-0.171493	0.488970	-0.505106	-0.291378	0.399228	-0.371586	-0.297101	0.357365	-0.382573	-0.239062	0.388987	-0.353662	-0.241570	0.349349	-0.358176	-0.286414	0.150074	-0.381447	-0.247283	0.155503	-0.455072	-0.331844	0.144893	-0.436574	-0.214381	0.067701	-0.340661	-0.166968	0.063919	-0.399847	-0.148461	0.057085	-0.389954	-0.230275	0.744700	-0.743424	-0.214872	0.685489	-0.751691	-0.151261	0.697036	-0.759105	-0.159330	0.756174	-0.752895	-0.211102	0.503971	-0.748627	-0.172415	0.485672	-0.627642	-0.296540	0.350070	-0.745513	-0.301072	0.310305	-0.735957	-0.244777	0.303828	-0.758870	-0.246650	0.347293	-0.766237	-0.279864	0.143914	-0.744358	-0.244685	0.157391	-0.668922	-0.328994	0.139840	-0.682534	-0.218014	0.062778	-0.772770	-0.168540	0.060567	-0.715625	-0.151267	0.050479	-0.725847	
625	3.1250	-0.240730	1.421274	-0.571920	-0.164372	1.407254	-0.717348	-0.176743	1.396743	-0.416856	-0.122708	1.357319	-0.566316	-0.110985	0.930539	-0.458651	-0.118410	0.931832	-0.684974	-0.170619	1.005249	-0.427542	-0.185607	0.985045	-0.716813	-0.273933	0.982199	-0.514162	-0.280342	0.975610	-0.598382	-0.280824	0.979170	-0.560842	-0.234792	0.758033	-0.390460	-0.219283	0.701469	-0.380489	-0.157520	0.715379	-0.368297	-0.164888	0.776308	-0.377112	-0.202694	0.519061	-0.377857	-0.170478	0.487538	-0.504519	-0.290961	0.398330	-0.371286	-0.297133	0.356414	-0.382411	-0.238780	0.387614	-0.353429	-0.241583	0.348015	-0.358011	-0.287823	0.149130	-0.381856	-0.248742	0.154489	-0.455497	-0.333385	0.144406	-0.436819	-0.216220	0.066197	-0.341511	-0.169054	0.062304	-0.400906	-0.150570	0.055458	-0.391092	-0.229959	0.742313	-0.743699	-0.214100	0.683219	-0.751843	-0.150538	0.695231	-0.759041	-0.159064	0.754330	-0.752972	-0.210069	0.502363	-0.748937	-0.171012	0.484261	-0.628176	-0.296330	0.348941	-0.745884	-0.301089	0.309266	-0.736295	-0.244699	0.302451	-0.758843	-0.246326	0.345890	-0.766312	-0.280676	0.142623	-0.743990	-0.245980	0.156332	-0.668408	-0.330309	0.138975	-0.682524	-0.218891	0.061062	-0.771427	-0.169903	0.059262	-0.713917	-0.152598	0.049303	-0.724012	
626	3.1300	-0.240540	1.419506	-0.571650	-0.164263	1.405152	-0.717483	-0.176734	1.394737	-0.416669	-0.122650	1.355284	-0.566237	-0.111405	0.928793	-0.458703	-0.118805	0.930012	-0.685070	-0.171236	1.003251	-0.427587	-0.186221	0.982877	-0.716781	-0.274525	0.979895	-0.514230	-0.281084	0.973401	-0.598422	-0.281478	0.977047	-0.560873	-0.234363	0.756031	-0.390075	-0.218575	0.699548	-0.380077	-0.156785	0.713676	-0.368364	-0.164429	0.774582	-0.377240	-0.201400	0.517289	-0.377339	-0.169523	0.485839	-0.503924	-0.290498	0.397167	-0.370943	-0.297077	0.355239	-0.382167	-0.238438	0.385996	-0.353183	-0.241540	0.346440	-0.357839	-0.289263	0.147964	-0.382287	-0.250232	0.153278	-0.455939	-0.334946	0.143790	-0.437086	-0.218184	0.064317	-0.342396	-0.171257	0.060373	-0.402032	-0.152816	0.053504	-0.392317	-0.229661	0.739710	-0.743990	-0.213339	0.680720	-0.752005	-0.149827	0.693216	-0.758965	-0.158822	0.752267	-0.753023	-0.209051	0.500533	-0.749235	-0.169644	0.482608	-0.628717	-0.296141	0.347530	-0.746253	-0.301121	0.307984	-0.736636	-0.244639	0.300821	-0.758824	-0.246013	0.344232	-0.766396	-0.281520	0.141093	-0.743643	-0.247326	0.155018	-0.667911	-0.331642	0.137928	-0.682564	-0.219854	0.059049	-0.770065	-0.171359	0.057659	-0.712173	-0.154029	0.047783	-0.722127	
627	3.1350	-0.240410	1.417487	-0.571484	-0.164155	1.402812	-0.717577	-0.176726	1.392507	-0.416500	-0.122592	1.352991	-0.566159	-0.111822	0.926811	-0.458744	-0.119192	0.927955	-0.685165	-0.171849	1.001028	-0.427628	-0.186839	0.980451	-0.716735	-0.275117	0.977359	-0.514280	-0.281833	0.970961	-0.598440	-0.282096	0.974658	-0.560892	-0.233928	0.753782	-0.389704	-0.217872	0.697370	-0.379683	-0.156061	0.711736	-0.368410	-0.163979	0.772608	-0.377350	-0.200085	0.515249	-0.376794	-0.168599	0.483868	-0.503336	-0.289986	0.395763	-0.370533	-0.296896	0.353868	-0.381812	-0.238036	0.384129	-0.352905	-0.241439	0.344617	-0.357661	-0.290714	0.146595	-0.382725	-0.251741	0.151875	-0.456395	-0.336509	0.143017	-0.437381	-0.220243	0.062174	-0.343389	-0.173549	0.058169	-0.403200	-0.155148	0.051250	-0.393583	-0.229384	0.736913	-0.744280	-0.212601	0.678022	-0.752168	-0.149141	0.690995	-0.758879	-0.158601	0.749994	-0.753050	-0.208040	0.498468	-0.749523	-0.168342	0.480701	-0.629249	-0.295933	0.345884	-0.746656	-0.301162	0.306455	-0.737003	-0.244579	0.298929	-0.758817	-0.245686	0.342324	-0.766498	-0.282387	0.139323	-0.743326	-0.248715	0.153444	-0.667441	-0.332983	0.136678	-0.682636	-0.220887	0.056747	-0.768692	-0.172901	0.055729	-0.710426	-0.155557	0.045972	-0.720233	
628	3.1400	-0.240339	1.415221	-0.571415	-0.164054	1.400249	-0.717630	-0.176712	1.390064	-0.416351	-0.122546	1.350442	-0.566078	-0.112232	0.924596	-0.458776	-0.119571	0.925651	-0.685256	-0.172456	0.998587	-0.427664	-0.187451	0.977772	-0.716679	-0.275701	0.974593	-0.514312	-0.282568	0.968278	-0.598437	-0.282666	0.971985	-0.560901	-0.233493	0.751291	-0.389346	-0.217172	0.694944	-0.379297	-0.155349	0.709557	-0.368435	-0.163543	0.770386	-0.377441	-0.198753	0.512961	-0.376216	-0.167711	0.481632	-0.502760	-0.289410	0.394124	-0.370035	-0.296673	0.352288	-0.381398	-0.237581	0.382011	-0.352608	-0.241288	0.342540	-0.357482	-0.292189	0.145022	-0.383187	-0.253257	0.150277	-0.456858	-0.338060	0.142064	-0.437693	-0.222412	0.059744	-0.344406	-0.175882	0.055733	-0.404389	-0.157520	0.048708	-0.394863	-0.229124	0.733931	-0.744557	-0.211891	0.675148	-0.752335	-0.148491	0.688573	-0.758797	-0.158403	0.747513	-0.753062	-0.207020	0.496159	-0.749810	-0.167122	0.478502	-0.629763	-0.295691	0.344001	-0.747098	-0.301196	0.304657	-0.737402	-0.244510	0.296771	-0.758830	-0.245335	0.340137	-0.766622	-0.283291	0.137309	-0.743023	-0.250150	0.151610	-0.667002	-0.334331	0.135178	-0.682689	-0.221994	0.054158	-0.767341	-0.174491	0.053505	-0.708679	-0.157135	0.043802	-0.718342	
629	3.1450	-0.240282	1.412697	-0.571369	-0.163948	1.397461	-0.717637	-0.176681	1.387380	-0.416232	-0.122517	1.347651	-0.566000	-0.112635	0.922150	-0.458793	-0.119933	0.923093	-0.685341	-0.173052	0.995926	-0.427695	-0.188051	0.974840	-0.716619	-0.276268	0.971593	-0.514334	-0.283276	0.965350	-0.598416	-0.283181	0.969017	-0.560898	-0.233069	0.748557	-0.388996	-0.216487	0.692284	-0.378905	-0.154662	0.707139	-0.368437	-0.163124	0.767918	-0.377515	-0.197420	0.510418	-0.375632	-0.166853	0.479125	-0.502189	-0.288863	0.392186	-0.369581	-0.296423	0.350482	-0.380895	-0.237076	0.379650	-0.352298	-0.241088	0.340216	-0.357283	-0.293658	0.143227	-0.383640	-0.254773	0.148463	-0.457316	-0.339580	0.140906	-0.438016	-0.224630	0.056994	-0.345398	-0.178231	0.053056	-0.405572	-0.159923	0.045917	-0.396139	-0.228878	0.730775	-0.744810	-0.211220	0.672097	-0.752484	-0.147887	0.685949	-0.758741	-0.158221	0.744832	-0.753079	-0.205993	0.493602	-0.750105	-0.165988	0.476017	-0.630249	-0.295406	0.341873	-0.747594	-0.301217	0.302577	-0.737848	-0.244430	0.294325	-0.758873	-0.244955	0.337663	-0.766780	-0.284274	0.135070	-0.742728	-0.251609	0.149514	-0.666587	-0.335710	0.133378	-0.682727	-0.223178	0.051302	-0.766063	-0.175955	0.051165	-0.706836	-0.158503	0.041507	-0.716456	
630	3.1500	-0.240244	1.409929	-0.571335	-0.163841	1.394464	-0.717609	-0.176638	1.384474	-0.416141	-0.122511	1.344621	-0.565921	-0.113023	0.919472	-0.458795	-0.120270	0.920282	-0.685420	-0.173637	0.993046	-0.427714	-0.188632	0.971660	-0.716545	-0.276811	0.968361	-0.514341	-0.283946	0.962162	-0.598366	-0.283642	0.965758	-0.560897	-0.232668	0.745581	-0.388646	-0.215833	0.689380	-0.378515	-0.154014	0.704482	-0.368415	-0.162737	0.765201	-0.377569	-0.196095	0.507624	-0.375044	-0.165982	0.476355	-0.501638	-0.288330	0.389982	-0.369138	-0.296155	0.348434	-0.380327	-0.236529	0.377036	-0.351978	-0.240853	0.337645	-0.357079	-0.295104	0.141193	-0.384058	-0.256299	0.146414	-0.457759	-0.341083	0.139498	-0.438340	-0.226890	0.054006	-0.346438	-0.180559	0.050108	-0.406753	-0.162329	0.042840	-0.397390	-0.228645	0.727454	-0.745026	-0.210599	0.668880	-0.752611	-0.147341	0.683122	-0.758730	-0.158061	0.741948	-0.753119	-0.204956	0.490796	-0.750420	-0.164948	0.473235	-0.630708	-0.295080	0.339493	-0.748161	-0.301229	0.300231	-0.738353	-0.244344	0.291596	-0.758962	-0.244552	0.334915	-0.766992	-0.285387	0.132609	-0.742429	-0.253115	0.147188	-0.666183	-0.337166	0.131214	-0.682720	-0.224326	0.048624	-0.765234	-0.176886	0.049129	-0.705137	-0.159168	0.039568	-0.714581	
631	3.1550	-0.240236	1.406904	-0.571307	-0.163742	1.391265	-0.717558	-0.176589	1.381354	-0.416071	-0.122528	1.341364	-0.565842	-0.113393	0.916559	-0.458776	-0.120578	0.917206	-0.685493	-0.174207	0.989950	-0.427714	-0.189176	0.968242	-0.716463	-0.277325	0.964900	-0.514333	-0.284564	0.958713	-0.598293	-0.284054	0.962219	-0.560889	-0.232300	0.742368	-0.388290	-0.215224	0.686236	-0.378115	-0.153417	0.701580	-0.368361	-0.162395	0.762242	-0.377596	-0.194791	0.504593	-0.374456	-0.165102	0.473331	-0.501118	-0.287782	0.387519	-0.368667	-0.295888	0.346146	-0.379752	-0.235949	0.374158	-0.351647	-0.240593	0.334825	-0.356860	-0.296564	0.138922	-0.384460	-0.257849	0.144145	-0.458190	-0.342601	0.137733	-0.438679	-0.229152	0.050684	-0.347395	-0.182696	0.047100	-0.408049	-0.164622	0.039891	-0.398608	-0.228430	0.723971	-0.745202	-0.210041	0.665507	-0.752737	-0.146861	0.680089	-0.758788	-0.157926	0.738854	-0.753206	-0.203916	0.487742	-0.750766	-0.164017	0.470165	-0.631150	-0.294713	0.336850	-0.748793	-0.301248	0.297630	-0.738931	-0.244272	0.288585	-0.759119	-0.244141	0.331876	-0.767281	-0.286680	0.129972	-0.742121	-0.254734	0.144630	-0.665797	-0.338757	0.128632	-0.682618	-0.225316	0.046325	-0.764908	-0.177301	0.047487	-0.704181	-0.159275	0.037936	-0.713338	
